<?xml version="1.0" encoding="UTF-8" standalone="no"?>
<!DOCTYPE svg PUBLIC "-//W3C//DTD SVG 1.1//EN"
 "http://www.w3.org/Graphics/SVG/1.1/DTD/svg11.dtd">
<!-- Generated by graphviz version 2.40.1 (20161225.0304)
 -->
<!-- Title: dependencies Pages: 1 -->
<svg width="1855pt" height="290pt"
 viewBox="0.00 0.00 1855.00 290.00" xmlns="http://www.w3.org/2000/svg" xmlns:xlink="http://www.w3.org/1999/xlink">
<g id="graph0" class="graph" transform="scale(1 1) rotate(0) translate(4 286)">
<title>dependencies</title>
<polygon fill="#ffffff" stroke="transparent" points="-4,4 -4,-286 1851,-286 1851,4 -4,4"/>
<text text-anchor="start" x="902.5091" y="-42.4" font-family="sans-serif" font-weight="bold" font-size="14.00" fill="#000000">Legend</text>
<polygon fill="#ffffb3" stroke="transparent" points="689.5,-10 689.5,-30 709.5,-30 709.5,-10 689.5,-10"/>
<text text-anchor="start" x="713.129" y="-15.4" font-family="sans-serif" font-size="14.00" fill="#000000"> &#160;Declarations</text>
<polygon fill="#8dd3c7" stroke="transparent" points="802.5,-10 802.5,-30 822.5,-30 822.5,-10 802.5,-10"/>
<text text-anchor="start" x="826.2251" y="-15.4" font-family="sans-serif" font-size="14.00" fill="#000000"> &#160;Module</text>
<polygon fill="#80b1d3" stroke="transparent" points="888.5,-10 888.5,-30 908.5,-30 908.5,-10 888.5,-10"/>
<text text-anchor="start" x="912.2812" y="-15.4" font-family="sans-serif" font-size="14.00" fill="#000000"> &#160;Bootstrap</text>
<polygon fill="#fdb462" stroke="transparent" points="985.5,-10 985.5,-30 1005.5,-30 1005.5,-10 985.5,-10"/>
<text text-anchor="start" x="1009.1732" y="-15.4" font-family="sans-serif" font-size="14.00" fill="#000000"> &#160;Providers</text>
<polygon fill="#fb8072" stroke="transparent" points="1081.5,-10 1081.5,-30 1101.5,-30 1101.5,-10 1081.5,-10"/>
<text text-anchor="start" x="1105.2258" y="-15.4" font-family="sans-serif" font-size="14.00" fill="#000000"> &#160;Exports</text>
<g id="clust1" class="cluster">
<title>cluster_AppModule</title>
<polygon fill="none" stroke="#000000" stroke-dasharray="1,5" points="8,-70 8,-274 1495,-274 1495,-70 8,-70"/>
</g>
<g id="clust2" class="cluster">
<title>cluster_AppModule_declarations</title>
<polygon fill="none" stroke="#000000" points="16,-78 16,-130 1231,-130 1231,-78 16,-78"/>
</g>
<g id="clust11" class="cluster">
<title>cluster_AppModule_imports</title>
<polygon fill="none" stroke="#000000" points="1239,-78 1239,-130 1487,-130 1487,-78 1239,-78"/>
</g>
<g id="clust13" class="cluster">
<title>cluster_AppModule_bootstrap</title>
<polygon fill="none" stroke="#000000" points="765,-214 765,-266 889,-266 889,-214 765,-214"/>
</g>
<g id="clust21" class="cluster">
<title>cluster_RouteModule</title>
<polygon fill="none" stroke="#000000" stroke-dasharray="1,5" points="1503,-138 1503,-206 1839,-206 1839,-138 1503,-138"/>
</g>
<g id="clust23" class="cluster">
<title>cluster_RouteModule_imports</title>
<polygon fill="none" stroke="#000000" points="1677,-146 1677,-198 1831,-198 1831,-146 1677,-146"/>
</g>
<g id="clust24" class="cluster">
<title>cluster_RouteModule_exports</title>
<polygon fill="none" stroke="#000000" points="1511,-146 1511,-198 1669,-198 1669,-146 1511,-146"/>
</g>
<!-- AppComponent -->
<g id="node1" class="node">
<title>AppComponent</title>
<polygon fill="#ffffb3" stroke="#000000" points="1222.9399,-122 1117.0601,-122 1117.0601,-86 1222.9399,-86 1222.9399,-122"/>
<text text-anchor="middle" x="1170" y="-99.8" font-family="Times,serif" font-size="14.00" fill="#000000">AppComponent</text>
</g>
<!-- AppModule -->
<g id="node9" class="node">
<title>AppModule</title>
<polygon fill="#8dd3c7" stroke="#000000" points="868.6571,-190 865.6571,-194 844.6571,-194 841.6571,-190 785.3429,-190 785.3429,-154 868.6571,-154 868.6571,-190"/>
<text text-anchor="middle" x="827" y="-167.8" font-family="Times,serif" font-size="14.00" fill="#000000">AppModule</text>
</g>
<!-- AppComponent&#45;&gt;AppModule -->
<g id="edge1" class="edge">
<title>AppComponent&#45;&gt;AppModule</title>
<path fill="none" stroke="#000000" d="M1170,-122.2667C1170,-140.5552 1170,-166 1170,-166 1170,-166 878.7156,-166 878.7156,-166"/>
<polygon fill="#000000" stroke="#000000" points="878.7157,-162.5001 868.7156,-166 878.7156,-169.5001 878.7157,-162.5001"/>
</g>
<!-- FooterComponent -->
<g id="node2" class="node">
<title>FooterComponent</title>
<polygon fill="#ffffb3" stroke="#000000" points="1098.8809,-122 981.1191,-122 981.1191,-86 1098.8809,-86 1098.8809,-122"/>
<text text-anchor="middle" x="1040" y="-99.8" font-family="Times,serif" font-size="14.00" fill="#000000">FooterComponent</text>
</g>
<!-- FooterComponent&#45;&gt;AppModule -->
<g id="edge2" class="edge">
<title>FooterComponent&#45;&gt;AppModule</title>
<path fill="none" stroke="#000000" d="M1040,-122.027C1040,-138.3976 1040,-160 1040,-160 1040,-160 878.8278,-160 878.8278,-160"/>
<polygon fill="#000000" stroke="#000000" points="878.8278,-156.5001 868.8278,-160 878.8278,-163.5001 878.8278,-156.5001"/>
</g>
<!-- HeaderComponent -->
<g id="node3" class="node">
<title>HeaderComponent</title>
<polygon fill="#ffffb3" stroke="#000000" points="962.7437,-122 841.2563,-122 841.2563,-86 962.7437,-86 962.7437,-122"/>
<text text-anchor="middle" x="902" y="-99.8" font-family="Times,serif" font-size="14.00" fill="#000000">HeaderComponent</text>
</g>
<!-- HeaderComponent&#45;&gt;AppModule -->
<g id="edge3" class="edge">
<title>HeaderComponent&#45;&gt;AppModule</title>
<path fill="none" stroke="#000000" d="M854.9783,-122.2228C854.9783,-122.2228 854.9783,-143.7269 854.9783,-143.7269"/>
<polygon fill="#000000" stroke="#000000" points="851.4783,-143.7269 854.9783,-153.7269 858.4783,-143.727 851.4783,-143.7269"/>
</g>
<!-- DashboardComponent -->
<g id="node4" class="node">
<title>DashboardComponent</title>
<polygon fill="#ffffb3" stroke="#000000" points="822.9734,-122 681.0266,-122 681.0266,-86 822.9734,-86 822.9734,-122"/>
<text text-anchor="middle" x="752" y="-99.8" font-family="Times,serif" font-size="14.00" fill="#000000">DashboardComponent</text>
</g>
<!-- DashboardComponent&#45;&gt;AppModule -->
<g id="edge4" class="edge">
<title>DashboardComponent&#45;&gt;AppModule</title>
<path fill="none" stroke="#000000" d="M804.0793,-122.2228C804.0793,-122.2228 804.0793,-143.7269 804.0793,-143.7269"/>
<polygon fill="#000000" stroke="#000000" points="800.5793,-143.7269 804.0793,-153.7269 807.5793,-143.727 800.5793,-143.7269"/>
</g>
<!-- EmployeeComponent -->
<g id="node5" class="node">
<title>EmployeeComponent</title>
<polygon fill="#ffffb3" stroke="#000000" points="663.0954,-122 524.9046,-122 524.9046,-86 663.0954,-86 663.0954,-122"/>
<text text-anchor="middle" x="594" y="-99.8" font-family="Times,serif" font-size="14.00" fill="#000000">EmployeeComponent</text>
</g>
<!-- EmployeeComponent&#45;&gt;AppModule -->
<g id="edge5" class="edge">
<title>EmployeeComponent&#45;&gt;AppModule</title>
<path fill="none" stroke="#000000" d="M594,-122.0336C594,-139.0597 594,-162 594,-162 594,-162 775.0752,-162 775.0752,-162"/>
<polygon fill="#000000" stroke="#000000" points="775.0752,-165.5001 785.0752,-162 775.0751,-158.5001 775.0752,-165.5001"/>
</g>
<!-- EmployeeDetailsComponent -->
<g id="node6" class="node">
<title>EmployeeDetailsComponent</title>
<polygon fill="#ffffb3" stroke="#000000" points="506.7478,-122 329.2522,-122 329.2522,-86 506.7478,-86 506.7478,-122"/>
<text text-anchor="middle" x="418" y="-99.8" font-family="Times,serif" font-size="14.00" fill="#000000">EmployeeDetailsComponent</text>
</g>
<!-- EmployeeDetailsComponent&#45;&gt;AppModule -->
<g id="edge6" class="edge">
<title>EmployeeDetailsComponent&#45;&gt;AppModule</title>
<path fill="none" stroke="#000000" d="M418,-122.1061C418,-141.3391 418,-169 418,-169 418,-169 775.1519,-169 775.1519,-169"/>
<polygon fill="#000000" stroke="#000000" points="775.1519,-172.5001 785.1519,-169 775.1519,-165.5001 775.1519,-172.5001"/>
</g>
<!-- MenulistComponent -->
<g id="node7" class="node">
<title>MenulistComponent</title>
<polygon fill="#ffffb3" stroke="#000000" points="311.608,-122 180.392,-122 180.392,-86 311.608,-86 311.608,-122"/>
<text text-anchor="middle" x="246" y="-99.8" font-family="Times,serif" font-size="14.00" fill="#000000">MenulistComponent</text>
</g>
<!-- MenulistComponent&#45;&gt;AppModule -->
<g id="edge7" class="edge">
<title>MenulistComponent&#45;&gt;AppModule</title>
<path fill="none" stroke="#000000" d="M246,-122.1686C246,-143.498 246,-176 246,-176 246,-176 775.2159,-176 775.2159,-176"/>
<polygon fill="#000000" stroke="#000000" points="775.2159,-179.5001 785.2159,-176 775.2159,-172.5001 775.2159,-179.5001"/>
</g>
<!-- MenuitemComponent -->
<g id="node8" class="node">
<title>MenuitemComponent</title>
<polygon fill="#ffffb3" stroke="#000000" points="162.3781,-122 23.6219,-122 23.6219,-86 162.3781,-86 162.3781,-122"/>
<text text-anchor="middle" x="93" y="-99.8" font-family="Times,serif" font-size="14.00" fill="#000000">MenuitemComponent</text>
</g>
<!-- MenuitemComponent&#45;&gt;AppModule -->
<g id="edge8" class="edge">
<title>MenuitemComponent&#45;&gt;AppModule</title>
<path fill="none" stroke="#000000" d="M93,-122.3228C93,-145.6602 93,-183 93,-183 93,-183 775.1677,-183 775.1677,-183"/>
<polygon fill="#000000" stroke="#000000" points="775.1677,-186.5001 785.1677,-183 775.1676,-179.5001 775.1677,-186.5001"/>
</g>
<!-- AppComponent  -->
<g id="node12" class="node">
<title>AppComponent </title>
<polygon fill="#80b1d3" stroke="#000000" points="881.439,-258 772.561,-258 772.561,-222 881.439,-222 881.439,-258"/>
<text text-anchor="middle" x="827" y="-235.8" font-family="Times,serif" font-size="14.00" fill="#000000">AppComponent </text>
</g>
<!-- AppModule&#45;&gt;AppComponent  -->
<g id="edge11" class="edge">
<title>AppModule&#45;&gt;AppComponent </title>
<path fill="none" stroke="#000000" stroke-dasharray="1,5" d="M827,-190.2228C827,-190.2228 827,-211.7269 827,-211.7269"/>
<polygon fill="#000000" stroke="#000000" points="823.5001,-211.7269 827,-221.7269 830.5001,-211.727 823.5001,-211.7269"/>
</g>
<!-- RouteModule -->
<g id="node10" class="node">
<title>RouteModule</title>
<polygon fill="#8dd3c7" stroke="#000000" points="1479.4916,-122 1476.4916,-126 1455.4916,-126 1452.4916,-122 1386.5084,-122 1386.5084,-86 1479.4916,-86 1479.4916,-122"/>
<text text-anchor="middle" x="1433" y="-99.8" font-family="Times,serif" font-size="14.00" fill="#000000">RouteModule</text>
</g>
<!-- RouteModule&#45;&gt;AppModule -->
<g id="edge9" class="edge">
<title>RouteModule&#45;&gt;AppModule</title>
<path fill="none" stroke="#000000" d="M1417.5014,-122.2921C1417.5014,-144.2057 1417.5014,-178 1417.5014,-178 1417.5014,-178 878.994,-178 878.994,-178"/>
<polygon fill="#000000" stroke="#000000" points="878.9941,-174.5001 868.994,-178 878.994,-181.5001 878.9941,-174.5001"/>
</g>
<!-- RouteRoutingModule  -->
<g id="node14" class="node">
<title>RouteRoutingModule </title>
<polygon fill="#fb8072" stroke="#000000" points="1660.6099,-190 1519.3901,-190 1519.3901,-154 1660.6099,-154 1660.6099,-190"/>
<text text-anchor="middle" x="1590" y="-167.8" font-family="Times,serif" font-size="14.00" fill="#000000">RouteRoutingModule </text>
</g>
<!-- RouteModule&#45;&gt;RouteRoutingModule  -->
<g id="edge13" class="edge">
<title>RouteModule&#45;&gt;RouteRoutingModule </title>
<path fill="none" stroke="#000000" stroke-dasharray="5,2" d="M1448.4986,-122.1532C1448.4986,-145.7566 1448.4986,-184 1448.4986,-184 1448.4986,-184 1509.2493,-184 1509.2493,-184"/>
<polygon fill="#000000" stroke="#000000" points="1509.2493,-187.5001 1519.2493,-184 1509.2493,-180.5001 1509.2493,-187.5001"/>
</g>
<!-- MaterialUIModule -->
<g id="node11" class="node">
<title>MaterialUIModule</title>
<polygon fill="#8dd3c7" stroke="#000000" points="1368.7381,-122 1365.7381,-126 1344.7381,-126 1341.7381,-122 1247.2619,-122 1247.2619,-86 1368.7381,-86 1368.7381,-122"/>
<text text-anchor="middle" x="1308" y="-99.8" font-family="Times,serif" font-size="14.00" fill="#000000">MaterialUIModule</text>
</g>
<!-- MaterialUIModule&#45;&gt;AppModule -->
<g id="edge10" class="edge">
<title>MaterialUIModule&#45;&gt;AppModule</title>
<path fill="none" stroke="#000000" d="M1308,-122.2228C1308,-142.3652 1308,-172 1308,-172 1308,-172 878.8442,-172 878.8442,-172"/>
<polygon fill="#000000" stroke="#000000" points="878.8442,-168.5001 868.8442,-172 878.8441,-175.5001 878.8442,-168.5001"/>
</g>
<!-- RouteRoutingModule -->
<g id="node13" class="node">
<title>RouteRoutingModule</title>
<polygon fill="#8dd3c7" stroke="#000000" points="1823.1094,-190 1820.1094,-194 1799.1094,-194 1796.1094,-190 1684.8906,-190 1684.8906,-154 1823.1094,-154 1823.1094,-190"/>
<text text-anchor="middle" x="1754" y="-167.8" font-family="Times,serif" font-size="14.00" fill="#000000">RouteRoutingModule</text>
</g>
<!-- RouteRoutingModule&#45;&gt;RouteModule -->
<g id="edge12" class="edge">
<title>RouteRoutingModule&#45;&gt;RouteModule</title>
<path fill="none" stroke="#000000" d="M1754,-153.7772C1754,-133.6348 1754,-104 1754,-104 1754,-104 1489.6762,-104 1489.6762,-104"/>
<polygon fill="#000000" stroke="#000000" points="1489.6762,-100.5001 1479.6762,-104 1489.6761,-107.5001 1489.6762,-100.5001"/>
</g>
</g>
</svg>
