<?xml version="1.0" encoding="UTF-8" standalone="no"?>
<!DOCTYPE svg PUBLIC "-//W3C//DTD SVG 1.1//EN"
 "http://www.w3.org/Graphics/SVG/1.1/DTD/svg11.dtd">
<!-- Generated by graphviz version 2.40.1 (20161225.0304)
 -->
<!-- Title: dependencies Pages: 1 -->
<svg width="1511pt" height="284pt"
 viewBox="0.00 0.00 1511.00 284.00" xmlns="http://www.w3.org/2000/svg" xmlns:xlink="http://www.w3.org/1999/xlink">
<g id="graph0" class="graph" transform="scale(1 1) rotate(0) translate(4 280)">
<title>dependencies</title>
<polygon fill="#ffffff" stroke="transparent" points="-4,4 -4,-280 1507,-280 1507,4 -4,4"/>
<text text-anchor="start" x="730.5091" y="-42.4" font-family="sans-serif" font-weight="bold" font-size="14.00" fill="#000000">Legend</text>
<polygon fill="#ffffb3" stroke="transparent" points="517.5,-10 517.5,-30 537.5,-30 537.5,-10 517.5,-10"/>
<text text-anchor="start" x="541.129" y="-15.4" font-family="sans-serif" font-size="14.00" fill="#000000"> &#160;Declarations</text>
<polygon fill="#8dd3c7" stroke="transparent" points="630.5,-10 630.5,-30 650.5,-30 650.5,-10 630.5,-10"/>
<text text-anchor="start" x="654.2251" y="-15.4" font-family="sans-serif" font-size="14.00" fill="#000000"> &#160;Module</text>
<polygon fill="#80b1d3" stroke="transparent" points="716.5,-10 716.5,-30 736.5,-30 736.5,-10 716.5,-10"/>
<text text-anchor="start" x="740.2812" y="-15.4" font-family="sans-serif" font-size="14.00" fill="#000000"> &#160;Bootstrap</text>
<polygon fill="#fdb462" stroke="transparent" points="813.5,-10 813.5,-30 833.5,-30 833.5,-10 813.5,-10"/>
<text text-anchor="start" x="837.1732" y="-15.4" font-family="sans-serif" font-size="14.00" fill="#000000"> &#160;Providers</text>
<polygon fill="#fb8072" stroke="transparent" points="909.5,-10 909.5,-30 929.5,-30 929.5,-10 909.5,-10"/>
<text text-anchor="start" x="933.2258" y="-15.4" font-family="sans-serif" font-size="14.00" fill="#000000"> &#160;Exports</text>
<g id="clust1" class="cluster">
<title>cluster_AppModule</title>
<polygon fill="none" stroke="#000000" stroke-dasharray="1,5" points="8,-70 8,-268 1495,-268 1495,-70 8,-70"/>
</g>
<g id="clust2" class="cluster">
<title>cluster_AppModule_declarations</title>
<polygon fill="none" stroke="#000000" points="272,-78 272,-130 1487,-130 1487,-78 272,-78"/>
</g>
<g id="clust11" class="cluster">
<title>cluster_AppModule_imports</title>
<polygon fill="none" stroke="#000000" points="16,-78 16,-130 264,-130 264,-78 16,-78"/>
</g>
<g id="clust13" class="cluster">
<title>cluster_AppModule_bootstrap</title>
<polygon fill="none" stroke="#000000" points="700,-208 700,-260 824,-260 824,-208 700,-208"/>
</g>
<!-- AppComponent -->
<g id="node1" class="node">
<title>AppComponent</title>
<polygon fill="#ffffb3" stroke="#000000" points="1478.9399,-122 1373.0601,-122 1373.0601,-86 1478.9399,-86 1478.9399,-122"/>
<text text-anchor="middle" x="1426" y="-99.8" font-family="Times,serif" font-size="14.00" fill="#000000">AppComponent</text>
</g>
<!-- AppModule -->
<g id="node9" class="node">
<title>AppModule</title>
<polygon fill="#8dd3c7" stroke="#000000" points="803.6571,-187 800.6571,-191 779.6571,-191 776.6571,-187 720.3429,-187 720.3429,-151 803.6571,-151 803.6571,-187"/>
<text text-anchor="middle" x="762" y="-164.8" font-family="Times,serif" font-size="14.00" fill="#000000">AppModule</text>
</g>
<!-- AppComponent&#45;&gt;AppModule -->
<g id="edge1" class="edge">
<title>AppComponent&#45;&gt;AppModule</title>
<path fill="none" stroke="#000000" d="M1426,-122.0109C1426,-144.4852 1426,-180 1426,-180 1426,-180 813.7877,-180 813.7877,-180"/>
<polygon fill="#000000" stroke="#000000" points="813.7877,-176.5001 803.7877,-180 813.7877,-183.5001 813.7877,-176.5001"/>
</g>
<!-- FooterComponent -->
<g id="node2" class="node">
<title>FooterComponent</title>
<polygon fill="#ffffb3" stroke="#000000" points="1354.8809,-122 1237.1191,-122 1237.1191,-86 1354.8809,-86 1354.8809,-122"/>
<text text-anchor="middle" x="1296" y="-99.8" font-family="Times,serif" font-size="14.00" fill="#000000">FooterComponent</text>
</g>
<!-- FooterComponent&#45;&gt;AppModule -->
<g id="edge2" class="edge">
<title>FooterComponent&#45;&gt;AppModule</title>
<path fill="none" stroke="#000000" d="M1296,-122.1289C1296,-142.5724 1296,-173 1296,-173 1296,-173 813.9021,-173 813.9021,-173"/>
<polygon fill="#000000" stroke="#000000" points="813.9021,-169.5001 803.9021,-173 813.902,-176.5001 813.9021,-169.5001"/>
</g>
<!-- HeaderComponent -->
<g id="node3" class="node">
<title>HeaderComponent</title>
<polygon fill="#ffffb3" stroke="#000000" points="1218.7437,-122 1097.2563,-122 1097.2563,-86 1218.7437,-86 1218.7437,-122"/>
<text text-anchor="middle" x="1158" y="-99.8" font-family="Times,serif" font-size="14.00" fill="#000000">HeaderComponent</text>
</g>
<!-- HeaderComponent&#45;&gt;AppModule -->
<g id="edge3" class="edge">
<title>HeaderComponent&#45;&gt;AppModule</title>
<path fill="none" stroke="#000000" d="M1158,-122.2667C1158,-140.5552 1158,-166 1158,-166 1158,-166 814.004,-166 814.004,-166"/>
<polygon fill="#000000" stroke="#000000" points="814.0041,-162.5001 804.004,-166 814.004,-169.5001 814.0041,-162.5001"/>
</g>
<!-- DashboardComponent -->
<g id="node4" class="node">
<title>DashboardComponent</title>
<polygon fill="#ffffb3" stroke="#000000" points="1078.9734,-122 937.0266,-122 937.0266,-86 1078.9734,-86 1078.9734,-122"/>
<text text-anchor="middle" x="1008" y="-99.8" font-family="Times,serif" font-size="14.00" fill="#000000">DashboardComponent</text>
</g>
<!-- DashboardComponent&#45;&gt;AppModule -->
<g id="edge4" class="edge">
<title>DashboardComponent&#45;&gt;AppModule</title>
<path fill="none" stroke="#000000" d="M1008,-122.0091C1008,-138.0494 1008,-159 1008,-159 1008,-159 813.7305,-159 813.7305,-159"/>
<polygon fill="#000000" stroke="#000000" points="813.7306,-155.5001 803.7305,-159 813.7305,-162.5001 813.7306,-155.5001"/>
</g>
<!-- EmployeeComponent -->
<g id="node5" class="node">
<title>EmployeeComponent</title>
<polygon fill="#ffffb3" stroke="#000000" points="919.0954,-122 780.9046,-122 780.9046,-86 919.0954,-86 919.0954,-122"/>
<text text-anchor="middle" x="850" y="-99.8" font-family="Times,serif" font-size="14.00" fill="#000000">EmployeeComponent</text>
</g>
<!-- EmployeeComponent&#45;&gt;AppModule -->
<g id="edge5" class="edge">
<title>EmployeeComponent&#45;&gt;AppModule</title>
<path fill="none" stroke="#000000" d="M792.3902,-122.1061C792.3902,-122.1061 792.3902,-140.991 792.3902,-140.991"/>
<polygon fill="#000000" stroke="#000000" points="788.8903,-140.9909 792.3902,-150.991 795.8903,-140.991 788.8903,-140.9909"/>
</g>
<!-- EmployeeDetailsComponent -->
<g id="node6" class="node">
<title>EmployeeDetailsComponent</title>
<polygon fill="#ffffb3" stroke="#000000" points="762.7478,-122 585.2522,-122 585.2522,-86 762.7478,-86 762.7478,-122"/>
<text text-anchor="middle" x="674" y="-99.8" font-family="Times,serif" font-size="14.00" fill="#000000">EmployeeDetailsComponent</text>
</g>
<!-- EmployeeDetailsComponent&#45;&gt;AppModule -->
<g id="edge6" class="edge">
<title>EmployeeDetailsComponent&#45;&gt;AppModule</title>
<path fill="none" stroke="#000000" d="M741.5228,-122.1061C741.5228,-122.1061 741.5228,-140.991 741.5228,-140.991"/>
<polygon fill="#000000" stroke="#000000" points="738.0229,-140.9909 741.5228,-150.991 745.0229,-140.991 738.0229,-140.9909"/>
</g>
<!-- MenulistComponent -->
<g id="node7" class="node">
<title>MenulistComponent</title>
<polygon fill="#ffffb3" stroke="#000000" points="567.608,-122 436.392,-122 436.392,-86 567.608,-86 567.608,-122"/>
<text text-anchor="middle" x="502" y="-99.8" font-family="Times,serif" font-size="14.00" fill="#000000">MenulistComponent</text>
</g>
<!-- MenulistComponent&#45;&gt;AppModule -->
<g id="edge7" class="edge">
<title>MenulistComponent&#45;&gt;AppModule</title>
<path fill="none" stroke="#000000" d="M502,-122.0091C502,-138.0494 502,-159 502,-159 502,-159 710.2265,-159 710.2265,-159"/>
<polygon fill="#000000" stroke="#000000" points="710.2265,-162.5001 720.2265,-159 710.2265,-155.5001 710.2265,-162.5001"/>
</g>
<!-- MenuitemComponent -->
<g id="node8" class="node">
<title>MenuitemComponent</title>
<polygon fill="#ffffb3" stroke="#000000" points="418.3781,-122 279.6219,-122 279.6219,-86 418.3781,-86 418.3781,-122"/>
<text text-anchor="middle" x="349" y="-99.8" font-family="Times,serif" font-size="14.00" fill="#000000">MenuitemComponent</text>
</g>
<!-- MenuitemComponent&#45;&gt;AppModule -->
<g id="edge8" class="edge">
<title>MenuitemComponent&#45;&gt;AppModule</title>
<path fill="none" stroke="#000000" d="M349,-122.2667C349,-140.5552 349,-166 349,-166 349,-166 710.1265,-166 710.1265,-166"/>
<polygon fill="#000000" stroke="#000000" points="710.1266,-169.5001 720.1265,-166 710.1265,-162.5001 710.1266,-169.5001"/>
</g>
<!-- AppComponent  -->
<g id="node12" class="node">
<title>AppComponent </title>
<polygon fill="#80b1d3" stroke="#000000" points="816.439,-252 707.561,-252 707.561,-216 816.439,-216 816.439,-252"/>
<text text-anchor="middle" x="762" y="-229.8" font-family="Times,serif" font-size="14.00" fill="#000000">AppComponent </text>
</g>
<!-- AppModule&#45;&gt;AppComponent  -->
<g id="edge11" class="edge">
<title>AppModule&#45;&gt;AppComponent </title>
<path fill="none" stroke="#000000" stroke-dasharray="1,5" d="M762,-187.1061C762,-187.1061 762,-205.991 762,-205.991"/>
<polygon fill="#000000" stroke="#000000" points="758.5001,-205.9909 762,-215.991 765.5001,-205.991 758.5001,-205.9909"/>
</g>
<!-- RouteModule -->
<g id="node10" class="node">
<title>RouteModule</title>
<polygon fill="#8dd3c7" stroke="#000000" points="256.4916,-122 253.4916,-126 232.4916,-126 229.4916,-122 163.5084,-122 163.5084,-86 256.4916,-86 256.4916,-122"/>
<text text-anchor="middle" x="210" y="-99.8" font-family="Times,serif" font-size="14.00" fill="#000000">RouteModule</text>
</g>
<!-- RouteModule&#45;&gt;AppModule -->
<g id="edge9" class="edge">
<title>RouteModule&#45;&gt;AppModule</title>
<path fill="none" stroke="#000000" d="M210,-122.1289C210,-142.5724 210,-173 210,-173 210,-173 710.0572,-173 710.0572,-173"/>
<polygon fill="#000000" stroke="#000000" points="710.0572,-176.5001 720.0572,-173 710.0572,-169.5001 710.0572,-176.5001"/>
</g>
<!-- MaterialUIModule -->
<g id="node11" class="node">
<title>MaterialUIModule</title>
<polygon fill="#8dd3c7" stroke="#000000" points="145.7381,-122 142.7381,-126 121.7381,-126 118.7381,-122 24.2619,-122 24.2619,-86 145.7381,-86 145.7381,-122"/>
<text text-anchor="middle" x="85" y="-99.8" font-family="Times,serif" font-size="14.00" fill="#000000">MaterialUIModule</text>
</g>
<!-- MaterialUIModule&#45;&gt;AppModule -->
<g id="edge10" class="edge">
<title>MaterialUIModule&#45;&gt;AppModule</title>
<path fill="none" stroke="#000000" d="M85,-122.0109C85,-144.4852 85,-180 85,-180 85,-180 710.1615,-180 710.1615,-180"/>
<polygon fill="#000000" stroke="#000000" points="710.1616,-183.5001 720.1615,-180 710.1615,-176.5001 710.1616,-183.5001"/>
</g>
</g>
</svg>
